<svg width="186" height="35" viewBox="0 0 186 35" fill="none" xmlns="http://www.w3.org/2000/svg">
<g clip-path="url(#clip0_13854_60885)">
<path d="M34.2365 0H0.757135C0.337211 0 0 0.337378 0 0.757509V34.2598C0 34.6736 0.337211 35.0173 0.757135 35.0173H34.2429C34.6564 35.0173 35 34.6799 35 34.2598V0.757509C35 0.337378 34.6628 0 34.2429 0H34.2365ZM16.9687 8.148C17.1851 7.77879 17.7131 7.77879 17.9358 8.148L22.2878 15.3221H12.7186L16.9687 8.15436V8.148ZM3.65206 14.4627L7.39956 8.148C7.61589 7.77879 8.14397 7.77879 8.36666 8.148L12.7186 15.3221H4.14197C3.70296 15.3221 3.43574 14.8446 3.65843 14.4691L3.65206 14.4627ZM31.3416 27.143C27.8804 27.143 27.8804 25.8572 24.4256 25.8572C20.9707 25.8572 20.9644 27.143 17.5095 27.143C14.0547 27.143 14.0484 25.8572 10.5935 25.8572C7.1387 25.8572 7.13234 27.143 3.67751 27.143V24.6095C7.1387 24.6095 7.1387 23.3236 10.5935 23.3236C14.0484 23.3236 14.0547 24.6095 17.5095 24.6095C20.9644 24.6095 20.9707 23.3236 24.4256 23.3236C27.8804 23.3236 27.8867 24.6095 31.3416 24.6095V27.143ZM31.3416 21.8596C27.8804 21.8596 27.8804 20.5737 24.4256 20.5737C20.9707 20.5737 20.9644 21.8596 17.5095 21.8596C14.0547 21.8596 14.0484 20.5737 10.5935 20.5737C7.1387 20.5737 7.13234 21.8596 3.67751 21.8596V19.326C7.1387 19.326 7.1387 18.0402 10.5935 18.0402C14.0484 18.0402 14.0547 19.326 17.5095 19.326C20.9644 19.326 20.9707 18.0402 24.4256 18.0402C27.8804 18.0402 27.8867 19.326 31.3416 19.326V21.8596ZM30.858 15.3157H22.2941L26.5443 8.148C26.7606 7.77879 27.2887 7.77879 27.5114 8.148L31.3416 14.4627C31.5706 14.8383 31.297 15.3221 30.858 15.3221V15.3157Z" fill="#000000"/>
<path d="M45.9026 21.2516H43.5547V20.5219H49.0437V21.2516H46.6958V27.5157H45.8972V21.2516H45.9026Z" fill="#000000"/>
<path d="M48.5527 24.9482V24.9269C48.5527 23.4408 49.6016 22.2423 51.0284 22.2423C52.5563 22.2423 53.4348 23.4621 53.4348 24.9695C53.4348 25.0708 53.4348 25.1293 53.4242 25.2199H49.33C49.4418 26.3385 50.2298 26.967 51.1455 26.967C51.8536 26.967 52.354 26.6794 52.7746 26.2373L53.2538 26.6687C52.732 27.2493 52.1038 27.6382 51.1295 27.6382C49.7134 27.6382 48.5527 26.5515 48.5527 24.9536V24.9482ZM52.6575 24.6446C52.5776 23.7071 52.0399 22.8869 51.0124 22.8869C50.1127 22.8869 49.4365 23.6379 49.3354 24.6446H52.6575Z" fill="#000000"/>
<path d="M59.2561 21.2516H56.9082V20.5218H62.3972V21.2516H60.0493V27.5157H59.2507V21.2516H59.2561Z" fill="#000000"/>
<path d="M62.0332 24.9482V24.9269C62.0332 23.2384 63.263 22.2423 64.4982 22.2423C65.4565 22.2423 66.0741 22.7643 66.4734 23.3396V22.3489H67.24V27.5157H66.4734V26.477C66.0528 27.0949 65.4459 27.6275 64.4982 27.6275C63.2577 27.6275 62.0332 26.6474 62.0332 24.9482ZM66.5053 24.9376V24.9163C66.5053 23.7285 65.5949 22.9295 64.6366 22.9295C63.6783 22.9295 62.8211 23.6699 62.8211 24.9163V24.9376C62.8211 26.1574 63.6677 26.9351 64.6366 26.9351C65.6056 26.9351 66.5053 26.1254 66.5053 24.9376ZM63.2577 20.7402H66.3722V21.3688H63.2577V20.7402Z" fill="#000000"/>
<path d="M68.709 20.2236H69.4756V23.2491C69.8164 22.6898 70.3541 22.2423 71.2432 22.2423C72.489 22.2423 73.2184 23.0839 73.2184 24.3091V27.5157H72.4517V24.5008C72.4517 23.542 71.93 22.9401 71.0249 22.9401C70.1198 22.9401 69.4756 23.59 69.4756 24.5594V27.5157H68.709V20.2236Z" fill="#000000"/>
<path d="M74.5293 25.5555V22.3489H75.2959V25.3637C75.2959 26.3225 75.8177 26.9244 76.7228 26.9244C77.6278 26.9244 78.272 26.2746 78.272 25.3051V22.3489H79.0334V27.5157H78.272V26.6155C77.9207 27.1748 77.3936 27.6222 76.5045 27.6222C75.2587 27.6222 74.5293 26.7806 74.5293 25.5555Z" fill="#000000"/>
<path d="M80.5078 20.2236H81.2745V23.2491C81.6152 22.6898 82.1529 22.2423 83.042 22.2423C84.2878 22.2423 85.0172 23.0839 85.0172 24.3091V27.5157H84.2506V24.5008C84.2506 23.542 83.7288 22.9401 82.8237 22.9401C81.9187 22.9401 81.2745 23.59 81.2745 24.5594V27.5157H80.5078V20.2236Z" fill="#000000"/>
<path d="M86.3281 25.5555V22.3489H87.0948V25.3637C87.0948 26.3225 87.6165 26.9244 88.5216 26.9244C89.4267 26.9244 90.0709 26.2746 90.0709 25.3051V22.3489H90.8269V27.5157H90.0709V26.6155C89.7195 27.1748 89.1924 27.6222 88.3033 27.6222C87.0575 27.6222 86.3281 26.7806 86.3281 25.5555Z" fill="#000000"/>
<path d="M94.7338 24.9589V24.9376C94.7338 23.4781 95.8732 22.2423 97.4278 22.2423C98.9824 22.2423 100.111 23.4621 100.111 24.9216V24.9429C100.111 26.4024 98.9611 27.6382 97.4065 27.6382C95.8519 27.6382 94.7285 26.4184 94.7285 24.9589H94.7338ZM99.3284 24.9589V24.9376C99.3284 23.8297 98.4979 22.9188 97.4118 22.9188C96.3257 22.9188 95.5271 23.8297 95.5271 24.9163V24.9376C95.5271 26.0455 96.347 26.9457 97.4331 26.9457C98.5192 26.9457 99.3284 26.0455 99.3284 24.9589Z" fill="#000000"/>
<path d="M104.27 26.1467V23.0307H103.551V22.3489H104.27V20.7882H105.036V22.3489H106.676V23.0307H105.036V26.0455C105.036 26.6741 105.388 26.9031 105.904 26.9031C106.165 26.9031 106.383 26.8552 106.655 26.722V27.3825C106.383 27.521 106.096 27.6009 105.728 27.6009C104.898 27.6009 104.27 27.1907 104.27 26.1414V26.1467Z" fill="#000000"/>
<path d="M107.314 24.9482V24.9269C107.314 23.4408 108.363 22.2423 109.79 22.2423C111.318 22.2423 112.196 23.4621 112.196 24.9695C112.196 25.0708 112.196 25.1293 112.185 25.2199H108.091C108.203 26.3385 108.991 26.967 109.907 26.967C110.615 26.967 111.115 26.6794 111.536 26.2373L112.015 26.6687C111.493 27.2493 110.865 27.6382 109.885 27.6382C108.469 27.6382 107.309 26.5515 107.309 24.9536L107.314 24.9482ZM111.413 24.6446C111.333 23.7071 110.796 22.8869 109.768 22.8869C108.869 22.8869 108.192 23.6379 108.091 24.6446H111.413Z" fill="#000000"/>
<path d="M116.168 20.5218H116.967L119.511 24.3357L122.056 20.5218H122.855V27.5157H122.067V21.8535L119.522 25.5981H119.485L116.94 21.8641V27.5157H116.173V20.5218H116.168Z" fill="#000000"/>
<path d="M124.154 24.9482V24.9269C124.154 23.2384 125.384 22.2423 126.619 22.2423C127.578 22.2423 128.195 22.7643 128.594 23.3396V22.3489H129.361V27.5157H128.594V26.477C128.174 27.0949 127.567 27.6275 126.619 27.6275C125.379 27.6275 124.154 26.6474 124.154 24.9482ZM128.626 24.9376V24.9163C128.626 23.7285 127.716 22.9295 126.758 22.9295C125.799 22.9295 124.942 23.6699 124.942 24.9163V24.9376C124.942 26.1574 125.789 26.9351 126.758 26.9351C127.727 26.9351 128.626 26.1254 128.626 24.9376ZM125.379 20.7402H128.493V21.3688H125.379V20.7402Z" fill="#000000"/>
<path d="M131.102 26.1467V23.0307H130.383V22.3489H131.102V20.7882H131.868V22.3489H133.508V23.0307H131.868V26.0455C131.868 26.6741 132.22 26.9031 132.736 26.9031C132.997 26.9031 133.215 26.8552 133.487 26.722V27.3825C133.215 27.521 132.928 27.6009 132.56 27.6009C131.73 27.6009 131.102 27.1907 131.102 26.1414V26.1467Z" fill="#000000"/>
<path d="M134.162 24.9482V24.9269C134.162 23.2384 135.392 22.2423 136.627 22.2423C137.585 22.2423 138.203 22.7643 138.602 23.3396V22.3489H139.369V27.5157H138.602V26.477C138.182 27.0949 137.575 27.6275 136.627 27.6275C135.387 27.6275 134.162 26.6474 134.162 24.9482ZM138.634 24.9376V24.9163C138.634 23.7285 137.724 22.9295 136.766 22.9295C135.807 22.9295 134.95 23.6699 134.95 24.9163V24.9376C134.95 26.1574 135.797 26.9351 136.766 26.9351C137.734 26.9351 138.634 26.1254 138.634 24.9376Z" fill="#000000"/>
<path d="M140.766 25.5555V22.3489H141.532V25.3637C141.532 26.3225 142.054 26.9244 142.959 26.9244C143.864 26.9244 144.508 26.2746 144.508 25.3051V22.3489H145.264V27.5157H144.508V26.6155C144.157 27.1748 143.63 27.6222 142.741 27.6222C141.495 27.6222 140.766 26.7806 140.766 25.5555Z" fill="#000000"/>
<path d="M146.744 22.3489H147.511V23.6965C147.889 22.8389 148.639 22.2157 149.619 22.2583V23.0893H149.561C148.432 23.0893 147.516 23.8989 147.516 25.4543V27.5103H146.749V22.3435L146.744 22.3489Z" fill="#000000"/>
<path d="M150.021 24.9482V24.9269C150.021 23.2384 151.251 22.2423 152.486 22.2423C153.445 22.2423 154.062 22.7643 154.462 23.3396V22.3489H155.228V27.5157H154.462V26.477C154.041 27.0949 153.434 27.6275 152.486 27.6275C151.246 27.6275 150.021 26.6474 150.021 24.9482ZM154.499 24.9376V24.9163C154.499 23.7285 153.589 22.9295 152.63 22.9295C151.672 22.9295 150.815 23.6699 150.815 24.9163V24.9376C150.815 26.1574 151.661 26.9351 152.63 26.9351C153.599 26.9351 154.499 26.1254 154.499 24.9376Z" fill="#000000"/>
<path d="M156.705 22.3489H157.472V23.2491C157.812 22.6898 158.35 22.2423 159.239 22.2423C160.485 22.2423 161.214 23.0839 161.214 24.3091V27.5157H160.448V24.5008C160.448 23.542 159.926 22.9401 159.021 22.9401C158.116 22.9401 157.472 23.59 157.472 24.5594V27.5157H156.705V22.3489Z" fill="#000000"/>
<path d="M162.544 28.4105L162.896 27.8086C163.487 28.2401 164.141 28.4691 164.881 28.4691C166.021 28.4691 166.761 27.8406 166.761 26.6314V26.0242C166.314 26.6261 165.68 27.1108 164.732 27.1108C163.492 27.1108 162.305 26.184 162.305 24.6926V24.6713C162.305 23.1638 163.503 22.2317 164.732 22.2317C165.701 22.2317 166.33 22.7111 166.75 23.2704V22.3435H167.517V26.6101C167.517 27.4091 167.277 28.0164 166.857 28.4372C166.399 28.8952 165.707 29.1243 164.892 29.1243C164.078 29.1243 163.236 28.8846 162.544 28.4052V28.4105ZM166.777 24.6872V24.6659C166.777 23.6059 165.861 22.9188 164.881 22.9188C163.902 22.9188 163.093 23.6006 163.093 24.6553V24.6766C163.093 25.7153 163.923 26.4344 164.881 26.4344C165.84 26.4344 166.777 25.7259 166.777 24.6872Z" fill="#000000"/>
<path d="M168.684 24.9482V24.9269C168.684 23.2384 169.913 22.2423 171.149 22.2423C172.107 22.2423 172.724 22.7643 173.124 23.3396V22.3489H173.89V27.5157H173.124V26.477C172.703 27.0949 172.096 27.6275 171.149 27.6275C169.908 27.6275 168.684 26.6474 168.684 24.9482ZM173.156 24.9376V24.9163C173.156 23.7285 172.245 22.9295 171.287 22.9295C170.329 22.9295 169.472 23.6699 169.472 24.9163V24.9376C169.472 26.1574 170.318 26.9351 171.287 26.9351C172.256 26.9351 173.156 26.1254 173.156 24.9376Z" fill="#000000"/>
<path d="M43.5547 5.94694H45.8447L48.3857 10.0334L50.9267 5.94694H53.2168V15.6138H51.1024V9.29896L48.3857 13.4293H48.3293L45.6377 9.3429V15.6138H43.5547V5.94694Z" fill="#000000"/>
<path d="M55.0801 5.53265H57.2886V7.39697H55.0801V5.53265ZM55.1365 8.20673H57.2321V15.6075H55.1365V8.20673Z" fill="#000000"/>
<path d="M58.9316 8.20673H61.0272V9.25502C61.5103 8.63358 62.1314 8.06863 63.1917 8.06863C64.7791 8.06863 65.7014 9.11692 65.7014 10.818V15.6075H63.6058V11.4771C63.6058 10.4854 63.1353 9.97062 62.3385 9.97062C61.5417 9.97062 61.0272 10.4791 61.0272 11.4771V15.6075H58.9316V8.20673Z" fill="#000000"/>
<path d="M67.2949 5.53265H69.5034V7.39697H67.2949V5.53265ZM67.3514 8.20673H69.4469V15.6075H67.3514V8.20673Z" fill="#000000"/>
<path d="M70.5703 14.6346L71.4675 13.2536C72.2706 13.8311 73.1113 14.1387 73.8015 14.1387C74.4101 14.1387 74.6861 13.919 74.6861 13.5863V13.5612C74.6861 13.1029 73.9709 12.9523 73.1552 12.7075C72.12 12.4062 70.9468 11.9228 70.9468 10.4853V10.4602C70.9468 8.95371 72.1639 8.11256 73.6509 8.11256C74.592 8.11256 75.6084 8.4327 76.4115 8.96626L75.6084 10.4163C74.8743 9.98944 74.1465 9.7258 73.607 9.7258C73.0988 9.7258 72.8353 9.9455 72.8353 10.2343V10.2594C72.8353 10.6737 73.538 10.8682 74.341 11.1444C75.3763 11.4897 76.5746 11.9856 76.5746 13.3415V13.3666C76.5746 15.0112 75.3449 15.7582 73.745 15.7582C72.7098 15.7582 71.5491 15.4129 70.5703 14.6408V14.6346Z" fill="#000000"/>
<path d="M78.0136 13.5109V10.002H77.1289V8.20672H78.0136V6.31729H80.1091V8.20672H81.847V10.002H80.1091V13.1657C80.1091 13.649 80.3161 13.8813 80.7867 13.8813C81.1757 13.8813 81.5208 13.7871 81.8219 13.6177V15.2999C81.3827 15.5636 80.8683 15.7268 80.1656 15.7268C78.8794 15.7268 78.0136 15.2183 78.0136 13.5047V13.5109Z" fill="#000000"/>
<path d="M83.1176 8.20672H85.2132V9.70069C85.6398 8.67751 86.3299 8.01841 87.5722 8.06862V10.2656H87.4593C86.0664 10.2656 85.2069 11.1068 85.2069 12.8769V15.6138H83.1113V8.213L83.1176 8.20672Z" fill="#000000"/>
<path d="M93.4719 8.20673H95.6553L92.8132 15.7896C92.2485 17.2961 91.6399 17.861 90.3851 17.861C89.6259 17.861 89.0613 17.6664 88.5217 17.3526L89.2244 15.8335C89.5005 15.9967 89.8455 16.1223 90.1216 16.1223C90.4792 16.1223 90.6737 16.0093 90.8557 15.6389L87.957 8.20673H90.1781L91.8595 13.2473L93.4719 8.20673Z" fill="#000000"/>
<path d="M99.293 11.9542V11.9291C99.293 9.80113 101.006 8.07491 103.308 8.07491C105.611 8.07491 107.299 9.77602 107.299 11.8977V11.9228C107.299 14.0508 105.586 15.777 103.283 15.777C100.981 15.777 99.293 14.0759 99.293 11.9479V11.9542ZM105.228 11.9542V11.9291C105.228 10.8369 104.444 9.88274 103.283 9.88274C102.123 9.88274 101.363 10.8055 101.363 11.8977V11.9228C101.363 13.0151 102.148 13.9692 103.308 13.9692C104.469 13.9692 105.228 13.0464 105.228 11.9542Z" fill="#000000"/>
<path d="M108.899 10.0083H108.027V8.28205H108.899V7.81126C108.899 6.99523 109.106 6.40517 109.495 6.01599C109.884 5.6268 110.449 5.43849 111.196 5.43849C111.861 5.43849 112.3 5.52009 112.689 5.64564V7.38442C112.388 7.27143 112.093 7.20238 111.735 7.20238C111.252 7.20238 110.976 7.45346 110.976 8.00586V8.29461H112.676V10.0083H111.008V15.6138H108.912V10.0083H108.899Z" fill="#000000"/>
<path d="M117.625 5.94694H124.915V7.83637H119.739V9.79485H124.294V11.6843H119.739V13.7118H124.985V15.6012H117.625V5.93438V5.94694Z" fill="#000000"/>
<path d="M125.902 11.9228V11.8977C125.902 9.4245 127.521 8.07491 129.272 8.07491C130.388 8.07491 131.078 8.58336 131.574 9.17969V5.53265H133.67V15.6138H131.574V14.553C131.066 15.2435 130.357 15.7582 129.272 15.7582C127.546 15.7582 125.902 14.4023 125.902 11.9291V11.9228ZM131.605 11.9228V11.8977C131.605 10.6674 130.79 9.85135 129.811 9.85135C128.832 9.85135 128.004 10.6548 128.004 11.8977V11.9228C128.004 13.1531 128.832 13.9692 129.811 13.9692C130.79 13.9692 131.605 13.1531 131.605 11.9228Z" fill="#000000"/>
<path d="M135.219 13.0025V8.20673H137.314V12.3371C137.314 13.3289 137.785 13.8436 138.582 13.8436C139.378 13.8436 139.893 13.3352 139.893 12.3371V8.20673H141.988V15.6075H139.893V14.5592C139.41 15.1807 138.789 15.7456 137.728 15.7456C136.141 15.7456 135.219 14.6973 135.219 12.9962V13.0025Z" fill="#000000"/>
<path d="M143.242 11.9542V11.9291C143.242 9.81369 144.855 8.07491 147.12 8.07491C148.512 8.07491 149.385 8.54569 150.075 9.31779L148.788 10.6988C148.318 10.2029 147.847 9.88274 147.107 9.88274C146.059 9.88274 145.313 10.8055 145.313 11.8977V11.9228C145.313 13.0527 146.047 13.9692 147.189 13.9692C147.891 13.9692 148.374 13.6679 148.889 13.1845L150.119 14.4274C149.403 15.2121 148.575 15.7833 147.094 15.7833C144.873 15.7833 143.242 14.0696 143.242 11.9542Z" fill="#000000"/>
<path d="M150.734 11.9228V11.8977C150.734 9.4245 152.353 8.07491 154.104 8.07491C155.22 8.07491 155.911 8.58336 156.406 9.17969V8.213H158.502V15.6138H156.406V14.553C155.898 15.2435 155.189 15.7582 154.104 15.7582C152.378 15.7582 150.734 14.4023 150.734 11.9291V11.9228ZM156.438 11.9228V11.8977C156.438 10.6674 155.622 9.85135 154.643 9.85135C153.664 9.85135 152.836 10.6548 152.836 11.8977V11.9228C152.836 13.1531 153.664 13.9692 154.643 13.9692C155.622 13.9692 156.438 13.1531 156.438 11.9228Z" fill="#000000"/>
<path d="M160.453 13.5109V10.002H159.568V8.20673H160.453V6.3173H162.549V8.20673H164.286V10.002H162.549V13.1657C162.549 13.649 162.756 13.8813 163.226 13.8813C163.615 13.8813 163.96 13.7871 164.261 13.6177V15.2999C163.822 15.5636 163.308 15.7268 162.605 15.7268C161.319 15.7268 160.453 15.2183 160.453 13.5047V13.5109Z" fill="#000000"/>
<path d="M165.604 5.53265H167.812V7.39697H165.604V5.53265ZM165.654 8.20673H167.749V15.6075H165.654V8.20673Z" fill="#000000"/>
<path d="M169.092 11.9542V11.9291C169.092 9.80113 170.805 8.07491 173.107 8.07491C175.41 8.07491 177.098 9.77602 177.098 11.8977V11.9228C177.098 14.0508 175.385 15.777 173.082 15.777C170.78 15.777 169.092 14.0759 169.092 11.9479V11.9542ZM175.027 11.9542V11.9291C175.027 10.8369 174.243 9.88274 173.082 9.88274C171.921 9.88274 171.162 10.8055 171.162 11.8977V11.9228C171.162 13.0151 171.947 13.9692 173.107 13.9692C174.268 13.9692 175.027 13.0464 175.027 11.9542Z" fill="#000000"/>
<path d="M178.342 8.20673H180.437V9.25502C180.92 8.63358 181.542 8.06863 182.602 8.06863C184.189 8.06863 185.112 9.11692 185.112 10.818V15.6075H183.016V11.4771C183.016 10.4854 182.545 9.97062 181.749 9.97062C180.952 9.97062 180.437 10.4791 180.437 11.4771V15.6075H178.342V8.20673Z" fill="#000000"/>
</g>
<defs>
<clipPath id="clip0_13854_60885">
<rect width="185.111" height="35" fill="white"/>
</clipPath>
</defs>
</svg>
